<?xml version="1.0" encoding="UTF-8"?>
<svg version="1.1" xmlns="http://www.w3.org/2000/svg" width="232" height="173">
<path d="M0 0 C0.721875 0.28875 1.44375 0.5775 2.1875 0.875 C8.27324299 3.62340006 13.9443439 7.67292703 19 12 C19.495 13.485 19.495 13.485 20 15 C17.05612451 19.97625816 12.12218375 23.66861395 7.76953125 27.35546875 C5.64767691 29.32743492 4.26147901 31.39819955 3 34 C6.54822446 33.42118732 8.18422803 32.17307641 10.671875 29.62109375 C11.33574219 28.94755859 11.99960938 28.27402344 12.68359375 27.58007812 C13.36550781 26.87302734 14.04742187 26.16597656 14.75 25.4375 C15.44738281 24.72658203 16.14476562 24.01566406 16.86328125 23.28320312 C18.5824658 21.52869286 20.29425872 19.76756648 22 18 C28.99344568 21.23375062 31.79806721 28.7959367 34.375 35.75 C38.83298949 51.5777358 37.28323822 69.8627065 29.3125 84.25 C22.16678044 95.19357051 13.03244694 103.82674066 1 109 C0.35933594 109.28875 -0.28132813 109.5775 -0.94140625 109.875 C-15.85745342 115.76216852 -33.15930846 113.61255733 -47.5546875 107.66796875 C-50.94525754 106.0265023 -53.9209515 104.16235173 -57 102 C-58.485 101.01 -58.485 101.01 -60 100 C-60 99.34 -60 98.68 -60 98 C-60.59039062 97.73960937 -61.18078125 97.47921875 -61.7890625 97.2109375 C-71.32104354 91.99024117 -76.21891007 79.39778892 -79.39794922 69.55883789 C-80.5543058 64.64408798 -80.48558678 59.71351496 -80.4375 54.6875 C-80.42920166 53.57681152 -80.42090332 52.46612305 -80.41235352 51.32177734 C-80.07809533 35.15605234 -73.53415728 22.33399837 -62 11 C-44.65922854 -4.27023159 -21.45516089 -8.77711127 0 0 Z M-24 22 C-24 24.64 -24 27.28 -24 30 C-25.9490625 30.309375 -25.9490625 30.309375 -27.9375 30.625 C-36.67642994 32.6173661 -42.18929233 37.3830462 -46.90625 44.8515625 C-50.29136758 51.50090061 -49.6021427 59.66084504 -48.3125 66.8125 C-44.91544022 75.06250231 -40.00941076 79.10722738 -32 83 C-29.6511307 83.87041433 -27.45427044 84.46646295 -25 85 C-24.67 87.64 -24.34 90.28 -24 93 C-22.68 93 -21.36 93 -20 93 C-19.67 90.36 -19.34 87.72 -19 85 C-18.33613281 84.81824219 -17.67226562 84.63648438 -16.98828125 84.44921875 C-10.11687967 82.55800677 -10.11687967 82.55800677 -4 79 C-4 78.34 -4 77.68 -4 77 C-3.4225 76.79375 -2.845 76.5875 -2.25 76.375 C1.21449911 74.2578061 3.29361964 71.07327223 4.6015625 67.234375 C5.1461575 64.18037164 5.17082737 61.22610871 5.1875 58.125 C5.20167969 56.93132812 5.21585938 55.73765625 5.23046875 54.5078125 C4.87307272 49.0681237 3.41638161 45.088059 0.0625 40.8125 C-0.44152344 40.15894531 -0.94554687 39.50539063 -1.46484375 38.83203125 C-1.97144531 38.22746094 -2.47804687 37.62289062 -3 37 C-3.43183594 36.47019531 -3.86367187 35.94039062 -4.30859375 35.39453125 C-6.70113291 33.42192968 -9.17319119 32.77832462 -12.125 31.875 C-17.91666667 30.08333333 -17.91666667 30.08333333 -19 29 C-19.36760731 26.67182036 -19.70241581 24.3381615 -20 22 C-21.32 22 -22.64 22 -24 22 Z " fill="#307D7B" transform="translate(140,33)"/>
<path d="M0 0 C17.80944364 13.4009175 30.74873702 31.05540522 33.99609375 53.640625 C36.06762982 76.04390393 31.76136979 96.65565834 18.3125 115.0625 C17.6525 115.0625 16.9925 115.0625 16.3125 115.0625 C16.085625 115.619375 15.85875 116.17625 15.625 116.75 C8.81671436 128.74555089 -5.6340592 135.61099803 -17.6875 141.0625 C-18.46480469 141.43117187 -19.24210937 141.79984375 -20.04296875 142.1796875 C-40.50229334 149.00953588 -63.57545847 146.57001305 -82.6875 137.0625 C-87.15329533 134.62217468 -91.57678802 132.06597182 -95.6875 129.0625 C-95.6875 128.4025 -95.6875 127.7425 -95.6875 127.0625 C-96.5228125 126.7221875 -96.5228125 126.7221875 -97.375 126.375 C-100.38265124 124.6679547 -102.32049102 122.59464914 -104.6875 120.0625 C-105.47640625 119.26392578 -105.47640625 119.26392578 -106.28125 118.44921875 C-120.80876534 103.03024224 -126.28082792 82.77519292 -125.9375 61.9609375 C-124.65348649 41.93835187 -116.81221111 21.80255446 -101.6875 8.0625 C-101.0275 8.0625 -100.3675 8.0625 -99.6875 8.0625 C-99.6875 7.4025 -99.6875 6.7425 -99.6875 6.0625 C-90.39170646 -1.80851771 -80.22289065 -7.22969586 -68.6875 -10.9375 C-67.8315625 -11.23914063 -66.975625 -11.54078125 -66.09375 -11.8515625 C-43.86668538 -18.68574616 -18.62448737 -13.22062126 0 0 Z M-83.6875 15.0625 C-83.6875 15.7225 -83.6875 16.3825 -83.6875 17.0625 C-84.244375 17.10375 -84.80125 17.145 -85.375 17.1875 C-88.88078368 18.51401274 -90.41869016 21.15376944 -92.6875 24.0625 C-93.1515625 24.49949219 -93.615625 24.93648437 -94.09375 25.38671875 C-96.30952797 27.71654411 -97.90889993 30.28256706 -99.625 33 C-100.29402344 34.04027344 -100.96304688 35.08054688 -101.65234375 36.15234375 C-107.00890854 45.76268941 -108.35087466 55.19177203 -108.25 66.0625 C-108.27384766 67.24328125 -108.29769531 68.4240625 -108.32226562 69.640625 C-108.30824334 78.12878117 -106.50640547 84.51368441 -102.6875 92.0625 C-102.11386719 93.21105469 -101.54023437 94.35960938 -100.94921875 95.54296875 C-92.02774191 110.88436689 -79.81216027 121.08863324 -62.9375 126.875 C-47.45030107 130.70824696 -29.92390825 129.06554594 -15.8125 121.6875 C-14.42156707 120.83805572 -13.04560513 119.9634997 -11.6875 119.0625 C-11.02492188 118.63324219 -10.36234375 118.20398438 -9.6796875 117.76171875 C3.1684721 108.81839197 12.60788763 95.22698471 16.3125 80.0625 C16.89840499 76.72085546 17.18680601 73.45077289 17.3125 70.0625 C17.37244141 68.86367187 17.37244141 68.86367187 17.43359375 67.640625 C17.87094496 51.48435674 12.53146057 38.09743264 3.3125 25.0625 C1.40260569 23.05466239 -0.40753771 21.68380652 -2.6875 20.0625 C-3.450625 19.258125 -4.21375 18.45375 -5 17.625 C-17.65272145 5.56077722 -33.14517218 2.47743965 -50.03125 2.8203125 C-62.42349731 3.32337399 -73.44592116 8.23478077 -83.6875 15.0625 Z " fill="#388382" transform="translate(163.6875,21.9375)"/>
<path d="M0 0 C0 13.86 0 27.72 0 42 C-5.17762153 43.03552431 -7.70420319 42.79132171 -12 40 C-16.37823986 35.85166771 -19.66914764 31.73271327 -20.40625 25.64453125 C-20.61297137 17.19479539 -19.95759063 11.43593733 -14 5 C-13.49855469 4.45214844 -12.99710937 3.90429688 -12.48046875 3.33984375 C-8.85563058 0.05931739 -4.68889773 0 0 0 Z " fill="#3D8887" transform="translate(116,69)"/>
<path d="M0 0 C7.13092603 2.67949948 10.89677726 5.88408157 14.95703125 12.234375 C17.18773353 17.95617636 16.96273104 26.32279689 14.8828125 32.08984375 C10.76249389 38.94408446 5.3084193 42.13882227 -2.171875 44.46875 C-2.831875 44.13875 -3.491875 43.80875 -4.171875 43.46875 C-4.171875 29.27875 -4.171875 15.08875 -4.171875 0.46875 C-2.171875 -0.53125 -2.171875 -0.53125 0 0 Z " fill="#3F8988" transform="translate(124.171875,68.53125)"/>
<path d="M0 0 C0.66 0.66 1.32 1.32 2 2 C-1.31127881 2.30102535 -2.97725564 2.01131295 -6 0.5078125 C-10.8691786 -1.64867486 -15.69570523 -1.40098404 -20.9375 -1.3125 C-21.88818359 -1.31572266 -22.83886719 -1.31894531 -23.81835938 -1.32226562 C-28.20351196 -1.28902188 -32.20164265 -1.08319204 -36.44140625 0.08203125 C-39.86378147 0.9648613 -40.82483605 0.99559117 -44 0 C-42.58398286 -0.48108275 -41.16715563 -0.95978141 -39.75 -1.4375 C-38.96109375 -1.70433594 -38.1721875 -1.97117187 -37.359375 -2.24609375 C-25.37521266 -6.07547013 -11.46241679 -5.09854253 0 0 Z " fill="#7AB4B7" transform="translate(140,33)"/>
<path d="M0 0 C4.72065967 1.54269924 9.41664092 3.07794619 14 5 C14 7.64 14 10.28 14 13 C15.32 13 16.64 13 18 13 C17.979375 11.700625 17.95875 10.40125 17.9375 9.0625 C17.91600546 7.70834367 17.92851801 6.35243917 18 5 C19 4 19 4 21.5625 3.9375 C22.7690625 3.9684375 22.7690625 3.9684375 24 4 C23.01 4.66 22.02 5.32 21 6 C20.42251197 7.96361864 20.42251197 7.96361864 20.3125 10.125 C20.209375 11.40375 20.10625 12.6825 20 14 C17.66705225 14.04241723 15.33297433 14.04092937 13 14 C11.03177114 12.03177114 11.33751619 8.65191291 11 6 C10.37351562 5.81824219 9.74703125 5.63648437 9.1015625 5.44921875 C8.28429687 5.19785156 7.46703125 4.94648437 6.625 4.6875 C5.81289062 4.44386719 5.00078125 4.20023437 4.1640625 3.94921875 C2 3 2 3 0 0 Z " fill="#87BCC0" transform="translate(102,113)"/>
<path d="M0 0 C0.66 0.33 1.32 0.66 2 1 C-2.32893185 6.18419194 -6.76564995 10.72706118 -12 15 C-12 10.39852874 -9.10228152 8.19311408 -6 5 C-4.05341967 3.24193983 -2.06456557 1.62215867 0 0 Z " fill="#5EA5A7" transform="translate(84,39)"/>
<path d="M0 0 C0.99 0.495 0.99 0.495 2 1 C3.17832621 4.53497862 3.18397309 7.75893071 3.1875 11.4375 C3.20167969 12.75621094 3.21585938 14.07492188 3.23046875 15.43359375 C3.02228903 18.6550867 2.72168766 20.33920999 1 23 C0.15808218 20.0751367 -0.11819313 17.49258344 -0.09765625 14.453125 C-0.09443359 13.60878906 -0.09121094 12.76445313 -0.08789062 11.89453125 C-0.07951172 11.02183594 -0.07113281 10.14914063 -0.0625 9.25 C-0.05798828 8.36183594 -0.05347656 7.47367187 -0.04882812 6.55859375 C-0.037074 4.37232671 -0.02064249 2.18619821 0 0 Z " fill="#7EB9BB" transform="translate(144,79)"/>
<path d="M0 0 C1.62283808 3.24567617 0.54725234 6.63839624 0.0625 10.125 C-0.03740234 10.87910156 -0.13730469 11.63320312 -0.24023438 12.41015625 C-0.48798404 14.27417753 -0.74328057 16.13719288 -1 18 C-3.58215672 15.41784328 -3.29794465 14.27296873 -3.3125 10.6875 C-3.24945178 6.31997819 -2.87413657 3.47291503 0 0 Z " fill="#83C0C4" transform="translate(92,78)"/>
<path d="M0 0 C0.33 0.66 0.66 1.32 1 2 C-0.99165738 4.98748606 -1.81244309 5.70138632 -4.875 7.25 C-5.55304688 7.60578125 -6.23109375 7.9615625 -6.9296875 8.328125 C-9.36680914 9.11903995 -10.61519919 8.83414558 -13 8 C-11.71086513 7.32845067 -10.41859796 6.66291141 -9.125 6 C-8.40570313 5.62875 -7.68640625 5.2575 -6.9453125 4.875 C-5 4 -5 4 -3 4 C-3 3.34 -3 2.68 -3 2 C-2.01 1.34 -1.02 0.68 0 0 Z " fill="#7CC4C8" transform="translate(139,108)"/>
<path d="M0 0 C1.58560393 0.25720674 3.16845924 0.53138799 4.75 0.8125 C5.63171875 0.96332031 6.5134375 1.11414063 7.421875 1.26953125 C10.1910911 2.05414248 11.8259401 3.14595359 14 5 C8.72676192 5.68041782 4.60611289 3.24786337 0 1 C0 0.67 0 0.34 0 0 Z " fill="#85BAC3" transform="translate(128,30)"/>
<path d="M0 0 C1.41791408 0.45445964 2.83428046 0.91374944 4.25 1.375 C5.43335937 1.75785156 5.43335937 1.75785156 6.640625 2.1484375 C8.86627958 2.95173667 10.90931672 3.89711662 13 5 C11.39479996 4.93976735 9.79065673 4.85091401 8.1875 4.75 C6.84751953 4.68039063 6.84751953 4.68039063 5.48046875 4.609375 C3 4 3 4 1.17578125 1.953125 C0.78777344 1.30859375 0.39976563 0.6640625 0 0 Z " fill="#A4D2D6" transform="translate(102,113)"/>
<path d="M0 0 C0.66 0.33 1.32 0.66 2 1 C-0.38957269 4.24299151 -2.2047869 6.50902342 -6 8 C-4.55746343 4.63408134 -2.66735273 2.48952921 0 0 Z " fill="#8CCACF" transform="translate(156,49)"/>
</svg>
